<svg width="72" height="76" viewBox="0 0 72 76" fill="none" xmlns="http://www.w3.org/2000/svg">
<rect y="1.52588e-05" width="72" height="76" rx="4" fill="white"/>
<mask id="mask0_1_3815" style="mask-type:alpha" maskUnits="userSpaceOnUse" x="20" y="22" width="32" height="32">
<rect x="20" y="22" width="32" height="32" fill="#D9D9D9"/>
</mask>
<g mask="url(#mask0_1_3815)">
<path d="M42.2 39.3333L34.6667 31.8L42.2 24.2667L49.7333 31.8L42.2 39.3333ZM24 36.6667V26H34.6667V36.6667H24ZM37.3333 50V39.3333H48V50H37.3333ZM24 50V39.3333H34.6667V50H24ZM26.6667 34H32V28.6667H26.6667V34ZM42.2333 35.6L46 31.8333L42.2333 28.0667L38.4667 31.8333L42.2333 35.6ZM40 47.3333H45.3333V42H40V47.3333ZM26.6667 47.3333H32V42H26.6667V47.3333Z" fill="#282828"/>
</g>
</svg>
