<svg width="72" height="76" viewBox="0 0 72 76" fill="none" xmlns="http://www.w3.org/2000/svg">
<rect width="72" height="76" rx="4" fill="white"/>
<mask id="mask0_1_3819" style="mask-type:alpha" maskUnits="userSpaceOnUse" x="20" y="22" width="32" height="32">
<rect x="20" y="22" width="32" height="32" fill="#D9D9D9"/>
</mask>
<g mask="url(#mask0_1_3819)">
<path d="M27.9998 43.3335H37.3332V39.3335H27.9998V43.3335ZM39.9998 43.3335H43.9998V32.6668H39.9998V43.3335ZM27.9998 36.6668H37.3332V32.6668H27.9998V36.6668ZM25.3332 48.6668C24.5998 48.6668 23.9721 48.4057 23.4498 47.8835C22.9276 47.3613 22.6665 46.7335 22.6665 46.0002V30.0002C22.6665 29.2668 22.9276 28.6391 23.4498 28.1168C23.9721 27.5946 24.5998 27.3335 25.3332 27.3335H46.6665C47.3998 27.3335 48.0276 27.5946 48.5498 28.1168C49.0721 28.6391 49.3332 29.2668 49.3332 30.0002V46.0002C49.3332 46.7335 49.0721 47.3613 48.5498 47.8835C48.0276 48.4057 47.3998 48.6668 46.6665 48.6668H25.3332ZM25.3332 46.0002H46.6665V30.0002H25.3332V46.0002Z" fill="#282828"/>
</g>
</svg>
