<svg width="72" height="76" viewBox="0 0 72 76" fill="none" xmlns="http://www.w3.org/2000/svg">
<rect width="72" height="76" rx="4" fill="white"/>
<mask id="mask0_1_3817" style="mask-type:alpha" maskUnits="userSpaceOnUse" x="20" y="22" width="32" height="32">
<rect x="20" y="22" width="32" height="32" fill="#D9D9D9"/>
</mask>
<g mask="url(#mask0_1_3817)">
<path d="M26.6667 50L24 34H48L45.3333 50H26.6667ZM28.9 47.3333H43.1L44.8 36.6667H27.2L28.9 47.3333ZM33.3333 42H38.6667C39.0444 42 39.3611 41.8722 39.6167 41.6167C39.8722 41.3611 40 41.0444 40 40.6667C40 40.2889 39.8722 39.9722 39.6167 39.7167C39.3611 39.4611 39.0444 39.3333 38.6667 39.3333H33.3333C32.9556 39.3333 32.6389 39.4611 32.3833 39.7167C32.1278 39.9722 32 40.2889 32 40.6667C32 41.0444 32.1278 41.3611 32.3833 41.6167C32.6389 41.8722 32.9556 42 33.3333 42ZM28 32.6667C27.6222 32.6667 27.3056 32.5389 27.05 32.2833C26.7944 32.0278 26.6667 31.7111 26.6667 31.3333C26.6667 30.9556 26.7944 30.6389 27.05 30.3833C27.3056 30.1278 27.6222 30 28 30H44C44.3778 30 44.6944 30.1278 44.95 30.3833C45.2056 30.6389 45.3333 30.9556 45.3333 31.3333C45.3333 31.7111 45.2056 32.0278 44.95 32.2833C44.6944 32.5389 44.3778 32.6667 44 32.6667H28ZM30.6667 28.6667C30.2889 28.6667 29.9722 28.5389 29.7167 28.2833C29.4611 28.0278 29.3333 27.7111 29.3333 27.3333C29.3333 26.9556 29.4611 26.6389 29.7167 26.3833C29.9722 26.1278 30.2889 26 30.6667 26H41.3333C41.7111 26 42.0278 26.1278 42.2833 26.3833C42.5389 26.6389 42.6667 26.9556 42.6667 27.3333C42.6667 27.7111 42.5389 28.0278 42.2833 28.2833C42.0278 28.5389 41.7111 28.6667 41.3333 28.6667H30.6667Z" fill="#282828"/>
</g>
</svg>
