<svg width="72" height="76" viewBox="0 0 72 76" fill="none" xmlns="http://www.w3.org/2000/svg">
<rect y="1.52588e-05" width="72" height="76" rx="4" fill="white"/>
<mask id="mask0_1_3814" style="mask-type:alpha" maskUnits="userSpaceOnUse" x="20" y="22" width="32" height="32">
<rect x="20" y="22" width="32" height="32" fill="#D9D9D9"/>
</mask>
<g mask="url(#mask0_1_3814)">
<path d="M25.0909 50V36.9792L22.6364 38.8889L21 36.6667L36 25L51 36.6667L49.3636 38.8542L46.9091 36.9792V50H25.0909ZM27.8182 47.2222H44.1818V34.8611L36 28.507L27.8182 34.8611V47.2222ZM30.5455 41.6667C30.1591 41.6667 29.8352 41.5336 29.5739 41.2674C29.3125 41.0012 29.1818 40.6713 29.1818 40.2778C29.1818 39.8843 29.3125 39.5544 29.5739 39.2882C29.8352 39.022 30.1591 38.8889 30.5455 38.8889C30.9318 38.8889 31.2557 39.022 31.517 39.2882C31.7784 39.5544 31.9091 39.8843 31.9091 40.2778C31.9091 40.6713 31.7784 41.0012 31.517 41.2674C31.2557 41.5336 30.9318 41.6667 30.5455 41.6667ZM36 41.6667C35.6136 41.6667 35.2898 41.5336 35.0284 41.2674C34.767 41.0012 34.6364 40.6713 34.6364 40.2778C34.6364 39.8843 34.767 39.5544 35.0284 39.2882C35.2898 39.022 35.6136 38.8889 36 38.8889C36.3864 38.8889 36.7102 39.022 36.9716 39.2882C37.233 39.5544 37.3636 39.8843 37.3636 40.2778C37.3636 40.6713 37.233 41.0012 36.9716 41.2674C36.7102 41.5336 36.3864 41.6667 36 41.6667ZM41.4545 41.6667C41.0682 41.6667 40.7443 41.5336 40.483 41.2674C40.2216 41.0012 40.0909 40.6713 40.0909 40.2778C40.0909 39.8843 40.2216 39.5544 40.483 39.2882C40.7443 39.022 41.0682 38.8889 41.4545 38.8889C41.8409 38.8889 42.1648 39.022 42.4261 39.2882C42.6875 39.5544 42.8182 39.8843 42.8182 40.2778C42.8182 40.6713 42.6875 41.0012 42.4261 41.2674C42.1648 41.5336 41.8409 41.6667 41.4545 41.6667Z" fill="#282828"/>
</g>
</svg>
