<svg width="72" height="76" viewBox="0 0 72 76" fill="none" xmlns="http://www.w3.org/2000/svg">
<rect width="72" height="76" rx="4" fill="white"/>
<mask id="mask0_1_3816" style="mask-type:alpha" maskUnits="userSpaceOnUse" x="20" y="22" width="32" height="32">
<rect x="20" y="22" width="32" height="32" fill="#D9D9D9"/>
</mask>
<g mask="url(#mask0_1_3816)">
<path d="M28 48.6667C27.2667 48.6667 26.6389 48.4056 26.1167 47.8833C25.5944 47.3611 25.3333 46.7333 25.3333 46C25.3333 45.2667 25.5944 44.6389 26.1167 44.1167C26.6389 43.5945 27.2667 43.3333 28 43.3333C28.7333 43.3333 29.3611 43.5945 29.8833 44.1167C30.4056 44.6389 30.6667 45.2667 30.6667 46C30.6667 46.7333 30.4056 47.3611 29.8833 47.8833C29.3611 48.4056 28.7333 48.6667 28 48.6667ZM36 48.6667C35.2667 48.6667 34.6389 48.4056 34.1167 47.8833C33.5944 47.3611 33.3333 46.7333 33.3333 46C33.3333 45.2667 33.5944 44.6389 34.1167 44.1167C34.6389 43.5945 35.2667 43.3333 36 43.3333C36.7333 43.3333 37.3611 43.5945 37.8833 44.1167C38.4056 44.6389 38.6667 45.2667 38.6667 46C38.6667 46.7333 38.4056 47.3611 37.8833 47.8833C37.3611 48.4056 36.7333 48.6667 36 48.6667ZM44 48.6667C43.2667 48.6667 42.6389 48.4056 42.1167 47.8833C41.5944 47.3611 41.3333 46.7333 41.3333 46C41.3333 45.2667 41.5944 44.6389 42.1167 44.1167C42.6389 43.5945 43.2667 43.3333 44 43.3333C44.7333 43.3333 45.3611 43.5945 45.8833 44.1167C46.4056 44.6389 46.6667 45.2667 46.6667 46C46.6667 46.7333 46.4056 47.3611 45.8833 47.8833C45.3611 48.4056 44.7333 48.6667 44 48.6667ZM28 40.6667C27.2667 40.6667 26.6389 40.4056 26.1167 39.8833C25.5944 39.3611 25.3333 38.7333 25.3333 38C25.3333 37.2667 25.5944 36.6389 26.1167 36.1167C26.6389 35.5945 27.2667 35.3333 28 35.3333C28.7333 35.3333 29.3611 35.5945 29.8833 36.1167C30.4056 36.6389 30.6667 37.2667 30.6667 38C30.6667 38.7333 30.4056 39.3611 29.8833 39.8833C29.3611 40.4056 28.7333 40.6667 28 40.6667ZM36 40.6667C35.2667 40.6667 34.6389 40.4056 34.1167 39.8833C33.5944 39.3611 33.3333 38.7333 33.3333 38C33.3333 37.2667 33.5944 36.6389 34.1167 36.1167C34.6389 35.5945 35.2667 35.3333 36 35.3333C36.7333 35.3333 37.3611 35.5945 37.8833 36.1167C38.4056 36.6389 38.6667 37.2667 38.6667 38C38.6667 38.7333 38.4056 39.3611 37.8833 39.8833C37.3611 40.4056 36.7333 40.6667 36 40.6667ZM44 40.6667C43.2667 40.6667 42.6389 40.4056 42.1167 39.8833C41.5944 39.3611 41.3333 38.7333 41.3333 38C41.3333 37.2667 41.5944 36.6389 42.1167 36.1167C42.6389 35.5945 43.2667 35.3333 44 35.3333C44.7333 35.3333 45.3611 35.5945 45.8833 36.1167C46.4056 36.6389 46.6667 37.2667 46.6667 38C46.6667 38.7333 46.4056 39.3611 45.8833 39.8833C45.3611 40.4056 44.7333 40.6667 44 40.6667ZM28 32.6667C27.2667 32.6667 26.6389 32.4056 26.1167 31.8833C25.5944 31.3611 25.3333 30.7333 25.3333 30C25.3333 29.2667 25.5944 28.6389 26.1167 28.1167C26.6389 27.5945 27.2667 27.3333 28 27.3333C28.7333 27.3333 29.3611 27.5945 29.8833 28.1167C30.4056 28.6389 30.6667 29.2667 30.6667 30C30.6667 30.7333 30.4056 31.3611 29.8833 31.8833C29.3611 32.4056 28.7333 32.6667 28 32.6667ZM36 32.6667C35.2667 32.6667 34.6389 32.4056 34.1167 31.8833C33.5944 31.3611 33.3333 30.7333 33.3333 30C33.3333 29.2667 33.5944 28.6389 34.1167 28.1167C34.6389 27.5945 35.2667 27.3333 36 27.3333C36.7333 27.3333 37.3611 27.5945 37.8833 28.1167C38.4056 28.6389 38.6667 29.2667 38.6667 30C38.6667 30.7333 38.4056 31.3611 37.8833 31.8833C37.3611 32.4056 36.7333 32.6667 36 32.6667ZM44 32.6667C43.2667 32.6667 42.6389 32.4056 42.1167 31.8833C41.5944 31.3611 41.3333 30.7333 41.3333 30C41.3333 29.2667 41.5944 28.6389 42.1167 28.1167C42.6389 27.5945 43.2667 27.3333 44 27.3333C44.7333 27.3333 45.3611 27.5945 45.8833 28.1167C46.4056 28.6389 46.6667 29.2667 46.6667 30C46.6667 30.7333 46.4056 31.3611 45.8833 31.8833C45.3611 32.4056 44.7333 32.6667 44 32.6667Z" fill="#282828"/>
</g>
</svg>
