<svg width="72" height="76" viewBox="0 0 72 76" fill="none" xmlns="http://www.w3.org/2000/svg">
<rect width="72" height="76" rx="4" fill="white"/>
<mask id="mask0_1_3818" style="mask-type:alpha" maskUnits="userSpaceOnUse" x="20" y="22" width="32" height="32">
<rect x="20" y="22" width="32" height="32" fill="#D9D9D9"/>
</mask>
<g mask="url(#mask0_1_3818)">
<path d="M26.6667 51.3333C25.5556 51.3333 24.6111 50.9444 23.8333 50.1667C23.0556 49.3889 22.6667 48.4444 22.6667 47.3333C22.6667 46.4667 22.9167 45.6889 23.4167 45C23.9167 44.3111 24.5556 43.8333 25.3333 43.5667V40.6667C25.3333 39.5555 25.7222 38.6111 26.5 37.8333C27.2778 37.0555 28.2222 36.6667 29.3333 36.6667H34.6667V32.4333C33.8889 32.1667 33.25 31.6889 32.75 31C32.25 30.3111 32 29.5333 32 28.6667C32 27.5555 32.3889 26.6111 33.1667 25.8333C33.9444 25.0555 34.8889 24.6667 36 24.6667C37.1111 24.6667 38.0556 25.0555 38.8333 25.8333C39.6111 26.6111 40 27.5555 40 28.6667C40 29.5333 39.75 30.3111 39.25 31C38.75 31.6889 38.1111 32.1667 37.3333 32.4333V36.6667H42.6667C43.7778 36.6667 44.7222 37.0555 45.5 37.8333C46.2778 38.6111 46.6667 39.5555 46.6667 40.6667V43.5667C47.4444 43.8333 48.0833 44.3111 48.5833 45C49.0833 45.6889 49.3333 46.4667 49.3333 47.3333C49.3333 48.4444 48.9444 49.3889 48.1667 50.1667C47.3889 50.9444 46.4444 51.3333 45.3333 51.3333C44.2222 51.3333 43.2778 50.9444 42.5 50.1667C41.7222 49.3889 41.3333 48.4444 41.3333 47.3333C41.3333 46.4667 41.5833 45.6889 42.0833 45C42.5833 44.3111 43.2222 43.8333 44 43.5667V40.6667C44 40.2889 43.8722 39.9722 43.6167 39.7167C43.3611 39.4611 43.0444 39.3333 42.6667 39.3333H37.3333V43.5667C38.1111 43.8333 38.75 44.3111 39.25 45C39.75 45.6889 40 46.4667 40 47.3333C40 48.4444 39.6111 49.3889 38.8333 50.1667C38.0556 50.9444 37.1111 51.3333 36 51.3333C34.8889 51.3333 33.9444 50.9444 33.1667 50.1667C32.3889 49.3889 32 48.4444 32 47.3333C32 46.4667 32.25 45.6889 32.75 45C33.25 44.3111 33.8889 43.8333 34.6667 43.5667V39.3333H29.3333C28.9556 39.3333 28.6389 39.4611 28.3833 39.7167C28.1278 39.9722 28 40.2889 28 40.6667V43.5667C28.7778 43.8333 29.4167 44.3111 29.9167 45C30.4167 45.6889 30.6667 46.4667 30.6667 47.3333C30.6667 48.4444 30.2778 49.3889 29.5 50.1667C28.7222 50.9444 27.7778 51.3333 26.6667 51.3333ZM26.6667 48.6667C27.0444 48.6667 27.3611 48.5389 27.6167 48.2833C27.8722 48.0278 28 47.7111 28 47.3333C28 46.9555 27.8722 46.6389 27.6167 46.3833C27.3611 46.1278 27.0444 46 26.6667 46C26.2889 46 25.9722 46.1278 25.7167 46.3833C25.4611 46.6389 25.3333 46.9555 25.3333 47.3333C25.3333 47.7111 25.4611 48.0278 25.7167 48.2833C25.9722 48.5389 26.2889 48.6667 26.6667 48.6667ZM36 48.6667C36.3778 48.6667 36.6944 48.5389 36.95 48.2833C37.2056 48.0278 37.3333 47.7111 37.3333 47.3333C37.3333 46.9555 37.2056 46.6389 36.95 46.3833C36.6944 46.1278 36.3778 46 36 46C35.6222 46 35.3056 46.1278 35.05 46.3833C34.7944 46.6389 34.6667 46.9555 34.6667 47.3333C34.6667 47.7111 34.7944 48.0278 35.05 48.2833C35.3056 48.5389 35.6222 48.6667 36 48.6667ZM45.3333 48.6667C45.7111 48.6667 46.0278 48.5389 46.2833 48.2833C46.5389 48.0278 46.6667 47.7111 46.6667 47.3333C46.6667 46.9555 46.5389 46.6389 46.2833 46.3833C46.0278 46.1278 45.7111 46 45.3333 46C44.9556 46 44.6389 46.1278 44.3833 46.3833C44.1278 46.6389 44 46.9555 44 47.3333C44 47.7111 44.1278 48.0278 44.3833 48.2833C44.6389 48.5389 44.9556 48.6667 45.3333 48.6667ZM36 30C36.3778 30 36.6944 29.8722 36.95 29.6167C37.2056 29.3611 37.3333 29.0444 37.3333 28.6667C37.3333 28.2889 37.2056 27.9722 36.95 27.7167C36.6944 27.4611 36.3778 27.3333 36 27.3333C35.6222 27.3333 35.3056 27.4611 35.05 27.7167C34.7944 27.9722 34.6667 28.2889 34.6667 28.6667C34.6667 29.0444 34.7944 29.3611 35.05 29.6167C35.3056 29.8722 35.6222 30 36 30Z" fill="#282828"/>
</g>
</svg>
